<svg viewBox="0 0 403 141" fill="none" xmlns="http://www.w3.org/2000/svg">
<path d="M273.196 102.431C273.196 128.099 258.645 139.912 238.165 139.912C223.211 139.912 208.525 132.62 208.525 122.266C208.525 117.016 212.297 113.224 216.608 113.224C224.827 113.224 226.444 124.162 237.492 124.162C249.483 124.162 254.333 117.598 254.333 100.827V96.4523H254.064C250.561 101.994 242.881 106.661 235.067 106.661C214.318 106.661 203.539 92.0763 203.539 71.075C203.539 43.5113 217.821 30.532 234.393 30.532C243.959 30.532 251.504 35.3447 255.142 43.2198H255.41V40.5943C255.41 34.0319 258.51 30.532 264.303 30.532C270.365 30.532 273.196 34.0319 273.196 40.5943V102.431H273.196ZM238.84 90.9097C247.597 90.9097 254.333 84.6396 254.333 69.4715C254.333 54.012 248.943 47.1582 239.782 47.1582C227.118 47.1582 223.21 57.2205 223.21 70.3467C223.211 80.1183 227.657 90.9097 238.84 90.9097Z" fill="#D699EF" stroke="black" stroke-miterlimit="10"/>
<path d="M211.077 88.1396C211.077 97.0352 213.098 99.0771 213.098 102.431C213.098 107.244 208.922 110.598 204.206 110.598C195.717 110.598 192.889 104.765 192.619 98.2027C184.939 107.391 176.047 110.598 165.672 110.598C154.49 110.598 143.441 102.286 143.441 88.8686C143.441 71.2219 155.836 66.263 170.926 64.3673L182.918 62.9084C187.634 62.3255 191.406 61.1588 191.406 55.0333C191.406 48.9078 185.613 46.2822 179.011 46.2822C164.46 46.2822 164.057 57.9495 156.242 57.9495C151.257 57.9495 147.888 54.1589 147.888 49.7838C147.888 41.3249 158.935 30.532 179.146 30.532C198.008 30.532 211.078 37.0943 211.078 52.4077V88.1396H211.077ZM191.406 72.8262C189.25 75.0133 185.209 75.7424 182.918 76.18L175.777 77.3466C167.558 78.6594 163.112 81.4295 163.112 87.8473C163.112 92.6601 167.289 96.5968 174.025 96.5968C184.804 96.5968 191.406 89.014 191.406 81.1389V72.8262Z" fill="#D699EF" stroke="black" stroke-miterlimit="10"/>
<path d="M120.397 46.4283H117.028C111.504 46.4283 109.213 44.095 109.213 39.4276C109.213 34.7602 111.503 32.4269 117.028 32.4269H120.397V19.4492C120.397 12.4485 124.304 8.80237 130.233 8.80237C136.161 8.80237 140.069 12.4485 140.069 19.4492V32.4277H145.997C151.791 32.4277 154.889 34.3242 154.889 39.4284C154.889 44.5334 151.791 46.4291 145.997 46.4291H140.069V89.0148C140.069 92.2233 141.685 93.9737 145.188 93.9737H148.017C152.328 93.9737 154.888 96.5976 154.888 101.12C154.888 107.244 150.039 110.598 140.606 110.598C126.326 110.598 120.397 104.182 120.397 91.6396V46.4283V46.4283Z" fill="#D699EF" stroke="black" stroke-miterlimit="10"/>
<path d="M88.7295 30.532C103.684 30.532 118.775 36.9482 118.775 46.7198C118.775 51.6787 115.676 56.0538 110.557 56.0538C102.877 56.0538 102.607 46.2822 90.2121 46.2822C83.3406 46.2822 78.8943 48.3248 78.8943 52.8461C78.8943 57.805 83.3406 58.9717 89.4045 60.429L97.6228 62.4716C108.806 65.2417 122.144 70.3467 122.144 85.2218C122.144 102.576 106.65 110.597 91.8289 110.597C74.0446 110.597 59.2247 101.993 59.2247 91.4934C59.2247 86.8268 61.6492 82.5962 67.1731 82.5962C75.6614 82.5962 76.4706 95.7224 91.0213 95.7224C98.0278 95.7224 102.474 92.3686 102.474 87.9935C102.474 82.597 98.1628 81.7218 91.1563 79.8261L79.5693 76.7629C68.1149 73.7006 59.2231 68.5963 59.2231 54.305C59.2231 36.949 75.1214 30.532 88.7295 30.532Z" fill="#D699EF" stroke="black" stroke-miterlimit="10"/>
<path d="M20.2763 74.5757C20.2763 85.8063 27.0136 93.9728 38.4648 93.9728C53.2862 93.9728 53.2862 83.4722 61.2346 83.4722C65.9509 83.4722 69.3187 87.8473 69.3187 91.7849C69.3187 104.617 50.321 110.597 38.464 110.597C10.9787 110.597 0.603516 90.4721 0.603516 71.9494C0.603516 47.1574 14.4824 30.5312 37.7906 30.5312C60.4254 30.5312 73.36 47.8857 73.36 65.3871C73.36 72.6792 71.3389 74.5749 64.7374 74.5749H20.2763V74.5757ZM54.7673 62.3255C53.6896 52.5539 46.9539 45.4078 38.1956 45.4078C28.3596 45.4078 22.4315 51.9717 20.2755 62.3255H54.7673Z" fill="#D699EF" stroke="black" stroke-miterlimit="10"/>
<path d="M394.453 1.2179C400.111 1.2179 403.46 6.17677 401.938 12.3023C400.416 18.427 394.602 23.3859 388.945 23.3859C383.285 23.3859 379.938 18.427 381.46 12.3023C382.982 6.17677 388.792 1.2179 394.453 1.2179ZM374.688 41.1788C376.101 35.4908 379.488 30.532 387.168 30.532C394.848 30.532 395.772 35.4908 394.359 41.1788L379.754 99.9514C378.34 105.64 374.953 110.598 367.273 110.598C359.593 110.598 358.669 105.641 360.083 99.9514L374.688 41.1788Z" fill="#D699EF" stroke="black" stroke-miterlimit="10"/>
<path d="M317.129 74.5757C317.129 85.8063 323.866 93.9728 335.317 93.9728C350.138 93.9728 350.138 83.4722 358.087 83.4722C362.802 83.4722 366.17 87.8473 366.17 91.7849C366.17 104.617 347.173 110.597 335.317 110.597C307.83 110.597 297.457 90.4721 297.457 71.9494C297.457 47.1574 311.334 30.5312 334.641 30.5312C357.278 30.5312 370.212 47.8857 370.212 65.3871C370.212 72.6792 368.19 74.5749 361.589 74.5749H317.129V74.5757ZM317.129 45.4078C318.208 55.1794 324.945 62.3255 333.701 62.3255C343.537 62.3255 349.465 55.7616 351.621 45.4078H317.129V45.4078Z" fill="#D699EF" stroke="black" stroke-miterlimit="10"/>
<path d="M273.141 1.21791C278.797 1.20992 284.616 6.16241 286.147 12.2879C287.678 18.4127 284.338 23.3779 278.682 23.3859C273.024 23.3939 267.207 18.4414 265.676 12.3175C264.146 6.19195 267.483 1.22669 273.141 1.21791ZM273.297 41.1931C271.875 35.5052 272.791 30.5439 280.468 30.5328C288.146 30.5216 291.54 35.4773 292.961 41.1652L307.65 99.9379C309.072 105.627 308.156 110.587 300.479 110.598C292.801 110.609 289.408 105.655 287.986 99.9658L273.297 41.1931Z" fill="#D699EF" stroke="black" stroke-miterlimit="10"/>
<path d="M329.28 37.8719C333.138 37.5919 335.966 33.2218 335.594 28.1109C335.223 23.0001 331.794 19.0839 327.936 19.3639C324.077 19.6439 321.25 24.014 321.621 29.1249C321.992 34.2357 325.421 38.1519 329.28 37.8719Z" fill="#F2F2F2" stroke="black" stroke-miterlimit="10"/>
<path d="M329.705 34.4125C331.134 34.3527 332.206 32.2347 332.099 29.6817C331.992 27.1288 330.747 25.1077 329.318 25.1674C327.889 25.2272 326.818 27.3452 326.924 29.8982C327.031 32.4511 328.276 34.4722 329.705 34.4125Z" fill="black"/>
<path opacity="0.8" d="M331.239 35.5428C331.968 35.5428 332.56 34.9515 332.56 34.222C332.56 33.4926 331.968 32.9012 331.239 32.9012C330.509 32.9012 329.917 33.4926 329.917 34.222C329.917 34.9515 330.509 35.5428 331.239 35.5428Z" fill="white"/>
<path opacity="0.8" d="M327.665 26.9833C328.636 26.9833 329.424 26.1961 329.424 25.225C329.424 24.2539 328.636 23.4666 327.665 23.4666C326.693 23.4666 325.906 24.2539 325.906 25.225C325.906 26.1961 326.693 26.9833 327.665 26.9833Z" fill="white"/>
<path d="M352.044 37.9134C355.911 38.026 359.167 33.9649 359.316 28.8428C359.466 23.7207 356.452 19.4771 352.584 19.3646C348.717 19.2521 345.461 23.3131 345.312 28.4352C345.163 33.5574 348.177 37.8009 352.044 37.9134Z" fill="#F2F2F2" stroke="black" stroke-miterlimit="10"/>
<path d="M352.821 34.5105C354.249 34.5958 355.53 32.5973 355.683 30.0467C355.835 27.496 354.802 25.3591 353.374 25.2738C351.946 25.1884 350.665 27.1869 350.513 29.7376C350.36 32.2882 351.394 34.4251 352.821 34.5105Z" fill="black"/>
<path opacity="0.8" d="M354.366 35.7816C355.096 35.7816 355.687 35.1902 355.687 34.4608C355.687 33.7313 355.096 33.14 354.366 33.14C353.636 33.14 353.045 33.7313 353.045 34.4608C353.045 35.1902 353.636 35.7816 354.366 35.7816Z" fill="white"/>
<path opacity="0.8" d="M351.723 26.9067C352.694 26.9067 353.482 26.1194 353.482 25.1483C353.482 24.1772 352.694 23.39 351.723 23.39C350.751 23.39 349.964 24.1772 349.964 25.1483C349.964 26.1194 350.751 26.9067 351.723 26.9067Z" fill="white"/>
</svg>
