<svg width="79" height="80" viewBox="0 0 79 80" fill="none" xmlns="http://www.w3.org/2000/svg">
<path d="M65.0702 18.2677C67.4815 18.2677 68.9086 20.3918 68.2601 23.0157C67.6115 25.6392 65.1339 27.7633 62.7229 27.7633C60.3106 27.7633 58.8845 25.6392 59.5331 23.0157C60.1816 20.3918 62.6579 18.2677 65.0702 18.2677ZM56.6469 35.3848C57.2491 32.9484 58.6929 30.8243 61.9658 30.8243C65.2387 30.8243 65.6323 32.9484 65.03 35.3848L58.8059 60.5599C58.2033 62.9966 56.7599 65.1204 53.487 65.1204C50.214 65.1204 49.8205 62.997 50.4227 60.5599L56.6469 35.3848Z" fill="#C045F4" stroke="black" stroke-miterlimit="10"/>
<path d="M32.1173 49.6903C32.1173 54.5008 34.9885 57.999 39.8686 57.999C46.1847 57.999 46.1847 53.501 49.5723 53.501C51.5816 53.501 53.0172 55.3751 53.0172 57.0618C53.0172 62.5585 44.921 65.1201 39.8686 65.1201C28.1547 65.1201 23.7338 56.4994 23.7338 48.5653C23.7338 37.9457 29.6478 30.824 39.5806 30.824C49.2275 30.824 54.7394 38.2577 54.7394 45.7543C54.7394 48.8779 53.8778 49.6899 51.0648 49.6899H32.1173V49.6903ZM32.1173 37.1963C32.5772 41.3819 35.4481 44.4429 39.1799 44.4429C43.3717 44.4429 45.8977 41.6313 46.8165 37.1963H32.1173Z" fill="#C045F4" stroke="black" stroke-miterlimit="10"/>
<path d="M13.3714 18.2677C15.7817 18.2643 18.2617 20.3857 18.914 23.0095C19.5662 25.633 18.1429 27.7599 15.7326 27.7633C13.3213 27.7667 10.8423 25.6453 10.19 23.0222C9.53778 20.3983 10.9601 18.2715 13.3714 18.2677ZM13.4378 35.391C12.8318 32.9546 13.2223 30.8294 16.4938 30.8246C19.7657 30.8198 21.2122 32.9426 21.8179 35.379L28.0777 60.5541C28.6837 62.9908 28.2932 65.1156 25.0217 65.1204C21.7498 65.1252 20.3036 63.0028 19.6976 60.566L13.4378 35.391Z" fill="#C045F4" stroke="black" stroke-miterlimit="10"/>
<path d="M37.2956 33.9683C38.9401 33.8484 40.1449 31.9765 39.9868 29.7872C39.8286 27.598 38.3673 25.9206 36.7229 26.0405C35.0785 26.1604 33.8736 28.0324 34.0318 30.2216C34.1899 32.4108 35.6512 34.0883 37.2956 33.9683Z" fill="#F2F2F2" stroke="black" stroke-miterlimit="10"/>
<path d="M37.477 32.4865C38.086 32.4609 38.5428 31.5536 38.4972 30.4601C38.4517 29.3665 37.9211 28.5008 37.3121 28.5264C36.7031 28.552 36.2463 29.4592 36.2919 30.5528C36.3374 31.6463 36.868 32.5121 37.477 32.4865Z" fill="black"/>
<path opacity="0.8" d="M38.1304 32.9707C38.4414 32.9707 38.6935 32.7174 38.6935 32.4049C38.6935 32.0925 38.4414 31.8392 38.1304 31.8392C37.8194 31.8392 37.5673 32.0925 37.5673 32.4049C37.5673 32.7174 37.8194 32.9707 38.1304 32.9707Z" fill="white"/>
<path opacity="0.8" d="M36.6073 29.3042C37.0213 29.3042 37.3569 28.967 37.3569 28.5511C37.3569 28.1351 37.0213 27.7979 36.6073 27.7979C36.1933 27.7979 35.8577 28.1351 35.8577 28.5511C35.8577 28.967 36.1933 29.3042 36.6073 29.3042Z" fill="white"/>
<path d="M46.9971 33.9861C48.6451 34.0343 50.0326 32.2948 50.0962 30.1007C50.1598 27.9067 48.8753 26.089 47.2273 26.0408C45.5792 25.9926 44.1917 27.7321 44.1281 29.9262C44.0645 32.1202 45.349 33.9379 46.9971 33.9861Z" fill="#F2F2F2" stroke="black" stroke-miterlimit="10"/>
<path d="M47.3283 32.5285C47.9367 32.565 48.4827 31.709 48.5477 30.6164C48.6128 29.5239 48.1722 28.6085 47.5638 28.572C46.9553 28.5354 46.4094 29.3914 46.3443 30.484C46.2793 31.5766 46.7198 32.4919 47.3283 32.5285Z" fill="black"/>
<path opacity="0.8" d="M47.9866 33.0729C48.2976 33.0729 48.5497 32.8196 48.5497 32.5072C48.5497 32.1947 48.2976 31.9414 47.9866 31.9414C47.6756 31.9414 47.4235 32.1947 47.4235 32.5072C47.4235 32.8196 47.6756 33.0729 47.9866 33.0729Z" fill="white"/>
<path opacity="0.8" d="M46.8601 29.2714C47.2741 29.2714 47.6097 28.9342 47.6097 28.5182C47.6097 28.1022 47.2741 27.765 46.8601 27.765C46.4461 27.765 46.1105 28.1022 46.1105 28.5182C46.1105 28.9342 46.4461 29.2714 46.8601 29.2714Z" fill="white"/>
</svg>
