<svg width="93" height="94" viewBox="0 0 93 94" fill="none" xmlns="http://www.w3.org/2000/svg">
<g filter="url(#filter0_d_36_169)">
<ellipse cx="46.5" cy="47" rx="39.5" ry="40" fill="black"/>
</g>
<path d="M72.0702 25.2677C74.4815 25.2677 75.9086 27.3918 75.2601 30.0157C74.6115 32.6392 72.1339 34.7633 69.7229 34.7633C67.3106 34.7633 65.8845 32.6392 66.5331 30.0157C67.1816 27.3918 69.6579 25.2677 72.0702 25.2677ZM63.6469 42.3848C64.2491 39.9484 65.6929 37.8243 68.9658 37.8243C72.2387 37.8243 72.6323 39.9484 72.03 42.3848L65.8059 67.5599C65.2033 69.9966 63.7599 72.1204 60.487 72.1204C57.214 72.1204 56.8205 69.997 57.4227 67.5599L63.6469 42.3848Z" fill="#C045F4" stroke="black" stroke-miterlimit="10"/>
<path d="M39.1173 56.6903C39.1173 61.5008 41.9885 64.999 46.8686 64.999C53.1847 64.999 53.1847 60.501 56.5723 60.501C58.5816 60.501 60.0172 62.3751 60.0172 64.0618C60.0172 69.5585 51.921 72.1201 46.8686 72.1201C35.1547 72.1201 30.7338 63.4994 30.7338 55.5653C30.7338 44.9457 36.6478 37.824 46.5806 37.824C56.2275 37.824 61.7394 45.2577 61.7394 52.7543C61.7394 55.8779 60.8778 56.6899 58.0648 56.6899H39.1173V56.6903ZM39.1173 44.1963C39.5772 48.3819 42.4481 51.4429 46.1799 51.4429C50.3717 51.4429 52.8977 48.6313 53.8165 44.1963H39.1173Z" fill="#C045F4" stroke="black" stroke-miterlimit="10"/>
<path d="M20.3714 25.2677C22.7817 25.2643 25.2617 27.3857 25.914 30.0095C26.5662 32.633 25.1429 34.7599 22.7326 34.7633C20.3213 34.7667 17.8423 32.6453 17.19 30.0222C16.5378 27.3983 17.9601 25.2715 20.3714 25.2677ZM20.4378 42.391C19.8318 39.9546 20.2223 37.8294 23.4938 37.8246C26.7657 37.8198 28.2122 39.9426 28.8179 42.379L35.0777 67.5541C35.6837 69.9908 35.2932 72.1156 32.0217 72.1204C28.7498 72.1252 27.3036 70.0028 26.6976 67.566L20.4378 42.391Z" fill="#C045F4" stroke="black" stroke-miterlimit="10"/>
<path d="M44.2956 40.9683C45.9401 40.8484 47.1449 38.9765 46.9868 36.7872C46.8286 34.598 45.3673 32.9206 43.7229 33.0405C42.0785 33.1604 40.8736 35.0324 41.0318 37.2216C41.1899 39.4108 42.6512 41.0883 44.2956 40.9683Z" fill="#F2F2F2" stroke="black" stroke-miterlimit="10"/>
<path d="M44.477 39.4865C45.086 39.4609 45.5428 38.5536 45.4972 37.4601C45.4517 36.3665 44.9211 35.5008 44.3121 35.5264C43.7031 35.552 43.2463 36.4592 43.2919 37.5528C43.3374 38.6463 43.868 39.5121 44.477 39.4865Z" fill="black"/>
<path opacity="0.8" d="M45.1304 39.9707C45.4414 39.9707 45.6935 39.7174 45.6935 39.4049C45.6935 39.0925 45.4414 38.8392 45.1304 38.8392C44.8194 38.8392 44.5673 39.0925 44.5673 39.4049C44.5673 39.7174 44.8194 39.9707 45.1304 39.9707Z" fill="white"/>
<path opacity="0.8" d="M43.6073 36.3042C44.0213 36.3042 44.3569 35.967 44.3569 35.5511C44.3569 35.1351 44.0213 34.7979 43.6073 34.7979C43.1933 34.7979 42.8577 35.1351 42.8577 35.5511C42.8577 35.967 43.1933 36.3042 43.6073 36.3042Z" fill="white"/>
<path d="M53.9971 40.9861C55.6451 41.0343 57.0326 39.2948 57.0962 37.1007C57.1598 34.9067 55.8753 33.089 54.2273 33.0408C52.5792 32.9926 51.1917 34.7321 51.1281 36.9262C51.0645 39.1202 52.349 40.9379 53.9971 40.9861Z" fill="#F2F2F2" stroke="black" stroke-miterlimit="10"/>
<path d="M54.3283 39.5285C54.9367 39.565 55.4827 38.709 55.5477 37.6164C55.6128 36.5239 55.1722 35.6085 54.5638 35.572C53.9553 35.5354 53.4094 36.3914 53.3443 37.484C53.2793 38.5766 53.7198 39.4919 54.3283 39.5285Z" fill="black"/>
<path opacity="0.8" d="M54.9866 40.0729C55.2976 40.0729 55.5497 39.8196 55.5497 39.5072C55.5497 39.1947 55.2976 38.9414 54.9866 38.9414C54.6756 38.9414 54.4235 39.1947 54.4235 39.5072C54.4235 39.8196 54.6756 40.0729 54.9866 40.0729Z" fill="white"/>
<path opacity="0.8" d="M53.8601 36.2714C54.2741 36.2714 54.6097 35.9342 54.6097 35.5182C54.6097 35.1022 54.2741 34.765 53.8601 34.765C53.4461 34.765 53.1105 35.1022 53.1105 35.5182C53.1105 35.9342 53.4461 36.2714 53.8601 36.2714Z" fill="white"/>
<defs>
<filter id="filter0_d_36_169" x="0" y="0" width="93" height="94" filterUnits="userSpaceOnUse" color-interpolation-filters="sRGB">
<feFlood flood-opacity="0" result="BackgroundImageFix"/>
<feColorMatrix in="SourceAlpha" type="matrix" values="0 0 0 0 0 0 0 0 0 0 0 0 0 0 0 0 0 0 127 0" result="hardAlpha"/>
<feMorphology radius="1" operator="dilate" in="SourceAlpha" result="effect1_dropShadow_36_169"/>
<feOffset/>
<feGaussianBlur stdDeviation="3"/>
<feComposite in2="hardAlpha" operator="out"/>
<feColorMatrix type="matrix" values="0 0 0 0 0.954167 0 0 0 0 0.954167 0 0 0 0 0.954167 0 0 0 1 0"/>
<feBlend mode="normal" in2="BackgroundImageFix" result="effect1_dropShadow_36_169"/>
<feBlend mode="normal" in="SourceGraphic" in2="effect1_dropShadow_36_169" result="shape"/>
</filter>
</defs>
</svg>
