<svg width="139" height="111" viewBox="0 0 139 111" fill="none" xmlns="http://www.w3.org/2000/svg">
<path d="M129.849 1C135.508 1 138.856 5.95888 137.334 12.0844C135.813 18.2091 129.999 23.168 124.342 23.168C118.681 23.168 115.335 18.2091 116.857 12.0844C118.378 5.95888 124.189 1 129.849 1ZM110.084 40.9609C111.497 35.2729 114.885 30.3141 122.565 30.3141C130.245 30.3141 131.168 35.2729 129.755 40.9609L115.15 99.7335C113.736 105.422 110.349 110.38 102.669 110.38C94.9894 110.38 94.066 105.423 95.4791 99.7335L110.084 40.9609Z" fill="#D699EF" stroke="black" stroke-miterlimit="10"/>
<path d="M52.5253 74.3578C52.5253 85.5884 59.2626 93.755 70.7138 93.755C85.5345 93.755 85.5345 83.2543 93.4836 83.2543C98.1983 83.2543 101.567 87.6294 101.567 91.567C101.567 104.399 82.5693 110.38 70.7138 110.38C43.227 110.38 32.8534 90.2542 32.8534 71.7315C32.8534 46.9395 46.7306 30.3133 70.038 30.3133C92.6744 30.3133 105.608 47.6678 105.608 65.1692C105.608 72.4613 103.586 74.357 96.9857 74.357H52.5253V74.3578ZM52.5253 45.1899C53.6045 54.9615 60.3411 62.1076 69.0978 62.1076C78.9338 62.1076 84.8611 55.5437 87.0171 45.1899H52.5253V45.1899Z" fill="#D699EF" stroke="black" stroke-miterlimit="10"/>
<path d="M8.53782 1.00001C14.1935 0.992024 20.013 5.94451 21.5435 12.07C23.0741 18.1948 19.7342 23.16 14.0785 23.168C8.42037 23.176 2.60333 18.2235 1.07277 12.0996C-0.457784 5.97406 2.87972 1.00879 8.53782 1.00001ZM8.69357 40.9753C7.27166 35.2873 8.18793 30.326 15.8647 30.3149C23.5422 30.3037 26.9364 35.2594 28.3575 40.9473L43.0464 99.72C44.4683 105.409 43.552 110.369 35.8753 110.38C28.1978 110.392 24.8043 105.437 23.3824 99.7479L8.69357 40.9753Z" fill="#D699EF" stroke="black" stroke-miterlimit="10"/>
<path d="M64.6763 37.654C68.5349 37.374 71.3621 33.0039 70.991 27.893C70.6199 22.7822 67.1909 18.866 63.3323 19.146C59.4736 19.426 56.6464 23.7961 57.0176 28.907C57.3887 34.0178 60.8176 37.934 64.6763 37.654Z" fill="#F2F2F2" stroke="black" stroke-miterlimit="10"/>
<path d="M65.1019 34.1946C66.5309 34.1348 67.6027 32.0168 67.4959 29.4638C67.389 26.9109 66.1439 24.8898 64.7149 24.9495C63.2859 25.0093 62.2141 27.1273 62.3209 29.6803C62.4278 32.2332 63.6728 34.2543 65.1019 34.1946Z" fill="black"/>
<path opacity="0.8" d="M66.6351 35.3249C67.3648 35.3249 67.9563 34.7336 67.9563 34.0041C67.9563 33.2747 67.3648 32.6833 66.6351 32.6833C65.9053 32.6833 65.3138 33.2747 65.3138 34.0041C65.3138 34.7336 65.9053 35.3249 66.6351 35.3249Z" fill="white"/>
<path opacity="0.8" d="M63.0611 26.7654C64.0326 26.7654 64.8201 25.9782 64.8201 25.0071C64.8201 24.036 64.0326 23.2487 63.0611 23.2487C62.0896 23.2487 61.3021 24.036 61.3021 25.0071C61.3021 25.9782 62.0896 26.7654 63.0611 26.7654Z" fill="white"/>
<path d="M87.4407 37.6955C91.3079 37.8081 94.5637 33.747 94.7129 28.6249C94.8621 23.5028 91.8481 19.2592 87.9809 19.1467C84.1137 19.0342 80.8578 23.0952 80.7087 28.2173C80.5595 33.3395 83.5735 37.583 87.4407 37.6955Z" fill="#F2F2F2" stroke="black" stroke-miterlimit="10"/>
<path d="M88.2179 34.2926C89.6457 34.3779 90.9268 32.3794 91.0794 29.8288C91.232 27.2781 90.1983 25.1412 88.7706 25.0559C87.3428 24.9705 86.0617 26.969 85.9091 29.5197C85.7565 32.0703 86.7902 34.2072 88.2179 34.2926Z" fill="black"/>
<path opacity="0.8" d="M89.7627 35.5637C90.4924 35.5637 91.084 34.9723 91.084 34.2429C91.084 33.5134 90.4924 32.9221 89.7627 32.9221C89.033 32.9221 88.4415 33.5134 88.4415 34.2429C88.4415 34.9723 89.033 35.5637 89.7627 35.5637Z" fill="white"/>
<path opacity="0.8" d="M87.1194 26.6888C88.0908 26.6888 88.8784 25.9015 88.8784 24.9304C88.8784 23.9593 88.0908 23.1721 87.1194 23.1721C86.1479 23.1721 85.3604 23.9593 85.3604 24.9304C85.3604 25.9015 86.1479 26.6888 87.1194 26.6888Z" fill="white"/>
</svg>
