<?xml version="1.0" encoding="utf-8"?>
<!-- Generator: Adobe Illustrator 17.0.0, SVG Export Plug-In . SVG Version: 6.00 Build 0)  -->
<!DOCTYPE svg PUBLIC "-//W3C//DTD SVG 1.1//EN" "http://www.w3.org/Graphics/SVG/1.1/DTD/svg11.dtd">
<svg version="1.1" id="Camada_1" xmlns="http://www.w3.org/2000/svg" xmlns:xlink="http://www.w3.org/1999/xlink" x="0px" y="0px"
	 width="512px" height="187.845px" viewBox="0 0 512 187.845" enable-background="new 0 0 512 187.845" xml:space="preserve">
<g>
	<g>
		<path fill="#C045F4" stroke="#000000" stroke-miterlimit="10" d="M345.752,135.788c0,32.144-18.216,46.938-43.853,46.938
			c-18.721,0-37.105-9.132-37.105-22.099c0-6.574,4.722-11.323,10.119-11.323c10.289,0,12.313,13.698,26.143,13.698
			c15.011,0,21.082-8.22,21.082-29.222v-5.479h-0.336c-4.386,6.94-14,12.784-23.782,12.784c-25.974,0-39.468-18.264-39.468-44.564
			c0-34.518,17.879-50.772,38.625-50.772c11.975,0,21.42,6.027,25.974,15.889h0.336v-3.288c0-8.218,3.88-12.601,11.132-12.601
			c7.589,0,11.132,4.383,11.132,12.601V135.788z M302.743,121.36c10.963,0,19.395-7.852,19.395-26.847
			c0-19.36-6.747-27.943-18.215-27.943c-15.854,0-20.746,12.601-20.746,29.039C283.178,107.846,288.744,121.36,302.743,121.36z"/>
		<path fill="#C045F4" stroke="#000000" stroke-miterlimit="10" d="M267.989,117.891c0,11.14,2.53,13.697,2.53,17.897
			c0,6.027-5.228,10.228-11.132,10.228c-10.626,0-14.167-7.305-14.505-15.523c-9.614,11.506-20.745,15.523-33.733,15.523
			c-13.998,0-27.829-10.41-27.829-27.212c0-22.099,15.516-28.309,34.407-30.683l15.011-1.827c5.904-0.73,10.626-2.191,10.626-9.862
			s-7.252-10.959-15.516-10.959c-18.216,0-18.721,14.611-28.504,14.611c-6.24,0-10.457-4.747-10.457-10.226
			c0-10.593,13.829-24.109,39.13-24.109c23.612,0,39.973,8.218,39.973,27.395V117.891z M243.364,98.714
			c-2.699,2.739-7.758,3.652-10.626,4.2l-8.939,1.461c-10.289,1.644-15.854,5.113-15.854,13.15c0,6.027,5.228,10.957,13.661,10.957
			c13.493,0,21.758-9.496,21.758-19.358V98.714z"/>
		<path fill="#C045F4" stroke="#000000" stroke-miterlimit="10" d="M154.472,65.656h-4.217c-6.915,0-9.783-2.922-9.783-8.767
			s2.867-8.767,9.783-8.767h4.217V31.87c0-8.767,4.891-13.333,12.313-13.333c7.421,0,12.313,4.566,12.313,13.333v16.253h7.421
			c7.253,0,11.132,2.375,11.132,8.767c0,6.393-3.879,8.767-11.132,8.767h-7.421v53.33c0,4.018,2.023,6.21,6.409,6.21h3.541
			c5.397,0,8.602,3.286,8.602,8.949c0,7.67-6.071,11.87-17.879,11.87c-17.877,0-25.299-8.035-25.299-23.742V65.656z"/>
		<path fill="#C045F4" stroke="#000000" stroke-miterlimit="10" d="M114.83,45.749c18.721,0,37.612,8.035,37.612,20.272
			c0,6.21-3.879,11.689-10.288,11.689c-9.614,0-9.952-12.237-25.468-12.237c-8.602,0-14.168,2.558-14.168,8.22
			c0,6.21,5.566,7.671,13.157,9.496l10.288,2.558c14,3.469,30.696,9.862,30.696,28.49c0,21.733-19.395,31.778-37.949,31.778
			c-22.263,0-40.815-10.775-40.815-23.924c0-5.844,3.035-11.142,9.95-11.142c10.626,0,11.639,16.438,29.854,16.438
			c8.771,0,14.337-4.2,14.337-9.679c0-6.758-5.397-7.854-14.168-10.228l-14.505-3.836C89.024,99.809,77.893,93.417,77.893,75.52
			C77.893,53.785,97.795,45.749,114.83,45.749z"/>
		<path fill="#C045F4" stroke="#000000" stroke-miterlimit="10" d="M29.138,100.905c0,14.064,8.434,24.291,22.769,24.291
			c18.554,0,18.554-13.15,28.504-13.15c5.904,0,10.12,5.479,10.12,10.41c0,16.07-23.782,23.559-38.625,23.559
			c-34.407,0-47.395-25.203-47.395-48.399c0-31.047,17.374-51.868,46.552-51.868c28.335,0,44.527,21.733,44.527,43.65
			c0,9.132-2.53,11.506-10.794,11.506H29.138z M72.315,85.564c-1.349-12.237-9.781-21.186-20.745-21.186
			c-12.313,0-19.734,8.22-22.433,21.186H72.315z"/>
		<path fill="#C045F4" stroke="#000000" stroke-miterlimit="10" d="M497.545,9.039c7.083,0,11.275,6.21,9.37,13.881
			c-1.905,7.67-9.183,13.88-16.265,13.88c-7.086,0-11.275-6.21-9.37-13.88C483.185,15.249,490.459,9.039,497.545,9.039z
			 M472.802,59.082c1.769-7.123,6.01-13.333,15.624-13.333c9.614,0,10.77,6.21,9.001,13.333l-18.283,73.601
			c-1.77,7.124-6.01,13.333-15.624,13.333c-9.614,0-10.77-6.208-9.001-13.333L472.802,59.082z"/>
		<path fill="#C045F4" stroke="#000000" stroke-miterlimit="10" d="M400.748,100.905c0,14.064,8.434,24.291,22.769,24.291
			c18.553,0,18.553-13.15,28.504-13.15c5.902,0,10.119,5.479,10.119,10.41c0,16.07-23.782,23.559-38.623,23.559
			c-34.409,0-47.395-25.203-47.395-48.399c0-31.047,17.372-51.868,46.549-51.868c28.337,0,44.528,21.733,44.528,43.65
			c0,9.132-2.531,11.506-10.794,11.506H400.748z M400.748,64.378c1.351,12.237,9.784,21.186,20.746,21.186
			c12.313,0,19.733-8.22,22.432-21.186H400.748z"/>
		<path fill="#C045F4" stroke="#000000" stroke-miterlimit="10" d="M345.683,9.039c7.08-0.01,14.365,6.192,16.281,13.863
			c1.916,7.67-2.265,13.888-9.345,13.898c-7.083,0.01-14.365-6.192-16.281-13.861C334.422,15.268,338.6,9.05,345.683,9.039z
			 M345.878,59.1c-1.78-7.123-0.633-13.336,8.977-13.35c9.611-0.014,13.86,6.192,15.639,13.315l18.388,73.601
			c1.78,7.124,0.633,13.336-8.977,13.35c-9.611,0.014-13.859-6.191-15.639-13.315L345.878,59.1z"/>
	</g>
	<g>
		<g>
			
				<ellipse transform="matrix(0.9974 -0.0724 0.0724 0.9974 -2.0499 30.1495)" fill="#F2F2F2" stroke="#000000" stroke-miterlimit="10" cx="415.107" cy="43.369" rx="8.769" ry="11.619"/>
			<ellipse transform="matrix(0.9991 -0.0418 0.0418 0.9991 -1.5092 17.4187)" cx="416.259" cy="44.841" rx="3.242" ry="5.794"/>
			<circle opacity="0.8" fill="#FFFFFF" cx="418.411" cy="50.37" r="1.654"/>
			<circle opacity="0.8" fill="#FFFFFF" cx="413.937" cy="39.103" r="2.202"/>
		</g>
		<g>
			
				<ellipse transform="matrix(0.9996 0.0291 -0.0291 0.9996 1.4493 -12.9165)" fill="#F2F2F2" stroke="#000000" stroke-miterlimit="10" cx="444.785" cy="43.369" rx="8.769" ry="11.619"/>
			<ellipse transform="matrix(0.9982 0.0597 -0.0597 0.9982 3.4791 -26.5356)" cx="445.782" cy="44.951" rx="3.242" ry="5.794"/>
			<circle opacity="0.8" fill="#FFFFFF" cx="447.363" cy="50.669" r="1.654"/>
			<circle opacity="0.8" fill="#FFFFFF" cx="444.054" cy="39.007" r="2.202"/>
		</g>
	</g>
</g>
</svg>
