<svg width="164" height="175" viewBox="0 0 164 175" fill="none" xmlns="http://www.w3.org/2000/svg">
<path d="M153.831 173.749C160.526 173.749 164.489 167.831 162.688 160.521C160.887 153.213 154.007 147.295 147.313 147.295C140.614 147.295 136.654 153.213 138.455 160.521C140.256 167.831 147.132 173.749 153.831 173.749ZM130.441 126.062C132.113 132.85 136.122 138.767 145.21 138.767C154.299 138.767 155.391 132.85 153.719 126.062L136.436 55.9268C134.763 49.1382 130.755 43.2216 121.666 43.2216C112.578 43.2216 111.485 49.1373 113.158 55.9268L130.441 126.062Z" fill="#D699EF" stroke="black" stroke-miterlimit="10"/>
<path d="M62.7753 74.3753C62.7753 87.777 70.7481 97.5225 84.2991 97.5225C101.838 97.5225 101.838 84.9917 111.244 84.9917C116.825 84.9917 120.811 90.2127 120.811 94.9115C120.811 110.225 98.3295 117.361 84.2982 117.361C51.7728 117.361 39.4951 93.3449 39.4951 71.2411C39.4951 41.656 55.919 21.8154 83.5013 21.8154C110.287 21.8154 125.593 42.5251 125.593 63.4101C125.593 72.1121 123.202 74.3743 115.39 74.3743H62.7753V74.3753ZM103.591 59.7566C102.316 48.0958 94.345 39.5682 83.9806 39.5682C72.3409 39.5682 65.3258 47.4012 62.7744 59.7566H103.591Z" fill="#D699EF" stroke="black" stroke-miterlimit="10"/>
<path d="M10.2735 173.749C16.9664 173.758 23.8529 167.848 25.6642 160.539C27.4754 153.23 23.523 147.304 16.8302 147.295C10.1346 147.285 3.25081 153.195 1.4396 160.503C-0.371623 167.813 3.57789 173.738 10.2735 173.749ZM10.4579 126.045C8.7752 132.833 9.85949 138.753 18.9439 138.766C28.0293 138.78 32.046 132.866 33.7277 126.078L51.1101 55.943C52.7927 49.1544 51.7085 43.2349 42.624 43.2216C33.5386 43.2082 29.5229 49.121 27.8403 55.9096L10.4579 126.045Z" fill="#D699EF" stroke="black" stroke-miterlimit="10"/>
<path d="M76.7064 30.5754C81.2727 30.2412 84.6183 25.0262 84.1791 18.9273C83.74 12.8283 79.6823 8.15501 75.116 8.48914C70.5498 8.82326 67.2042 14.0383 67.6434 20.1372C68.0825 26.2362 72.1402 30.9095 76.7064 30.5754Z" fill="#F2F2F2" stroke="black" stroke-miterlimit="10"/>
<path d="M77.21 26.4471C78.9011 26.3758 80.1695 23.8483 80.043 20.8018C79.9166 17.7552 78.4432 15.3434 76.7521 15.4147C75.0611 15.486 73.7927 18.0135 73.9191 21.06C74.0456 24.1066 75.519 26.5184 77.21 26.4471Z" fill="black"/>
<path opacity="0.8" d="M79.0245 27.7959C79.888 27.7959 80.588 27.0903 80.588 26.2198C80.588 25.3493 79.888 24.6437 79.0245 24.6437C78.161 24.6437 77.4609 25.3493 77.4609 26.2198C77.4609 27.0903 78.161 27.7959 79.0245 27.7959Z" fill="white"/>
<path opacity="0.8" d="M74.795 17.5816C75.9446 17.5816 76.8766 16.6422 76.8766 15.4833C76.8766 14.3245 75.9446 13.385 74.795 13.385C73.6454 13.385 72.7134 14.3245 72.7134 15.4833C72.7134 16.6422 73.6454 17.5816 74.795 17.5816Z" fill="white"/>
<path d="M78.6537 3.0119C77.7211 7.2822 73.4 15.1985 63.5768 12.7014C66.8017 12.0446 74.3318 9.18722 78.6537 3.0119Z" fill="black" stroke="black"/>
<path d="M103.645 30.6248C108.221 30.7591 112.074 25.9129 112.251 19.8005C112.427 13.6881 108.861 8.62416 104.284 8.48987C99.7081 8.35557 95.8552 13.2018 95.6787 19.3142C95.5021 25.4266 99.0689 30.4905 103.645 30.6248Z" fill="#F2F2F2" stroke="black" stroke-miterlimit="10"/>
<path d="M104.565 26.564C106.255 26.6658 107.771 24.2809 107.951 21.2372C108.132 18.1934 106.909 15.6433 105.219 15.5415C103.53 15.4396 102.014 17.8245 101.833 20.8683C101.652 23.9121 102.876 26.4621 104.565 26.564Z" fill="black"/>
<path opacity="0.8" d="M106.393 28.0808C107.257 28.0808 107.957 27.3752 107.957 26.5047C107.957 25.6342 107.257 24.9286 106.393 24.9286C105.53 24.9286 104.83 25.6342 104.83 26.5047C104.83 27.3752 105.53 28.0808 106.393 28.0808Z" fill="white"/>
<path opacity="0.8" d="M103.265 17.4901C104.415 17.4901 105.347 16.5506 105.347 15.3918C105.347 14.2329 104.415 13.2935 103.265 13.2935C102.115 13.2935 101.183 14.2329 101.183 15.3918C101.183 16.5506 102.115 17.4901 103.265 17.4901Z" fill="white"/>
<path d="M104.218 3.68792C104.624 7.88554 107.861 15.9629 117.557 14.6914C114.542 13.6942 107.654 10.0974 104.218 3.68792Z" fill="black" stroke="black"/>
</svg>
