<?xml version="1.0" encoding="utf-8"?>
<svg width="164" height="176" viewBox="0 0 164 176" fill="none" xmlns="http://www.w3.org/2000/svg">
    <path d="M153.336 174.527C160.031 174.527 163.994 168.61 162.193 161.3C160.392 153.991 153.512 148.073 146.818 148.073C140.119 148.073 136.159 153.991 137.96 161.3C139.761 168.61 146.637 174.527 153.336 174.527ZM129.946 126.841C131.618 133.628 135.627 139.546 144.715 139.546C153.804 139.546 154.896 133.628 153.224 126.841L135.941 56.7052C134.268 49.9167 130.26 44 121.171 44C112.083 44 110.99 49.9157 112.663 56.7052L129.946 126.841Z" fill="#C045F4" stroke="black" stroke-miterlimit="10"/>
    <path d="M62.2802 75.1537C62.2802 88.5555 70.253 98.3009 83.804 98.3009C101.343 98.3009 101.343 85.7701 110.749 85.7701C116.33 85.7701 120.316 90.9911 120.316 95.6899C120.316 111.003 97.8344 118.14 83.8031 118.14C51.2777 118.14 39 94.1234 39 72.0196C39 42.4345 55.4239 22.5939 83.0062 22.5939C109.792 22.5939 125.098 43.3035 125.098 64.1885C125.098 72.8905 122.706 75.1528 114.894 75.1528H62.2802V75.1537ZM103.096 60.5351C101.821 48.8743 93.8499 40.3466 83.4855 40.3466C71.8458 40.3466 64.8307 48.1796 62.2793 60.5351H103.096Z" fill="#C045F4" stroke="black" stroke-miterlimit="10"/>
    <path d="M9.77842 174.527C16.4712 174.537 23.3578 168.627 25.169 161.317C26.9803 154.008 23.0279 148.083 16.3351 148.073C9.63944 148.064 2.7557 153.974 0.944479 161.282C-0.86674 168.592 3.08278 174.517 9.77842 174.527ZM9.96274 126.823C8.28008 133.611 9.36438 139.531 18.4488 139.545C27.5342 139.558 31.5508 133.644 33.2325 126.857L50.615 56.7214C52.2976 49.9329 51.2133 44.0134 42.1289 44C33.0435 43.9867 29.0278 49.8995 27.3451 56.6881L9.96274 126.823Z" fill="#C045F4" stroke="black" stroke-miterlimit="10"/>
    <path d="M76.2113 31.3538C80.7776 31.0197 84.1232 25.8046 83.684 19.7057C83.2448 13.6068 79.1871 8.93346 74.6209 9.26758C70.0547 9.6017 66.7091 14.8167 67.1482 20.9157C67.5874 27.0146 71.6451 31.6879 76.2113 31.3538Z" fill="#F2F2F2" stroke="black" stroke-miterlimit="10"/>
    <path d="M76.7149 27.2255C78.406 27.1542 79.6744 24.6267 79.5479 21.5802C79.4215 18.5336 77.9481 16.1218 76.257 16.1931C74.566 16.2644 73.2976 18.7919 73.424 21.8384C73.5505 24.8849 75.0238 27.2968 76.7149 27.2255Z" fill="black"/>
    <path opacity="0.8" d="M78.5294 28.5744C79.3929 28.5744 80.0929 27.8687 80.0929 26.9982C80.0929 26.1278 79.3929 25.4221 78.5294 25.4221C77.6659 25.4221 76.9658 26.1278 76.9658 26.9982C76.9658 27.8687 77.6659 28.5744 78.5294 28.5744Z" fill="white"/>
    <path opacity="0.8" d="M74.2999 18.3601C75.4495 18.3601 76.3814 17.4206 76.3814 16.2618C76.3814 15.1029 75.4495 14.1635 74.2999 14.1635C73.1502 14.1635 72.2183 15.1029 72.2183 16.2618C72.2183 17.4206 73.1502 18.3601 74.2999 18.3601Z" fill="white"/>
    <path d="M78.1586 3.7904C77.226 8.0607 72.9049 15.977 63.0817 13.4799C66.3066 12.8231 73.8367 9.96572 78.1586 3.7904Z" fill="black" stroke="black"/>
    <path d="M103.15 31.4033C107.726 31.5376 111.579 26.6914 111.756 20.579C111.932 14.4666 108.366 9.40268 103.789 9.26839C99.213 9.13409 95.3601 13.9803 95.1836 20.0927C95.007 26.2051 98.5738 31.269 103.15 31.4033Z" fill="#F2F2F2" stroke="black" stroke-miterlimit="10"/>
    <path d="M104.07 27.3425C105.76 27.4443 107.276 25.0595 107.456 22.0157C107.637 18.9719 106.414 16.4219 104.724 16.32C103.034 16.2181 101.518 18.603 101.338 21.6468C101.157 24.6906 102.38 27.2406 104.07 27.3425Z" fill="black"/>
    <path opacity="0.8" d="M105.898 28.8593C106.762 28.8593 107.462 28.1536 107.462 27.2832C107.462 26.4127 106.762 25.707 105.898 25.707C105.034 25.707 104.334 26.4127 104.334 27.2832C104.334 28.1536 105.034 28.8593 105.898 28.8593Z" fill="white"/>
    <path opacity="0.8" d="M102.77 18.2686C103.919 18.2686 104.851 17.3292 104.851 16.1703C104.851 15.0114 103.919 14.072 102.77 14.072C101.62 14.072 100.688 15.0114 100.688 16.1703C100.688 17.3292 101.62 18.2686 102.77 18.2686Z" fill="white"/>
    <path d="M103.723 4.46643C104.129 8.66405 107.366 16.7414 117.062 15.4699C114.047 14.4727 107.159 10.8759 103.723 4.46643Z" fill="black" stroke="black"/>
</svg>
